<svg xmlns="http://www.w3.org/2000/svg" width="19.123" height="15.555" viewBox="0 0 19.123 15.555"><defs><style>.a{fill:#08415c;}</style></defs><path class="a" d="M160.123,189.212a7.559,7.559,0,0,1-1.955,2.026,11.064,11.064,0,0,1-11.161,11.694A10.646,10.646,0,0,1,141,201.155a7.685,7.685,0,0,0,5.794-1.6,4,4,0,0,1-3.661-2.737,3.637,3.637,0,0,0,1.777-.071,3.948,3.948,0,0,1-3.163-3.91,3.833,3.833,0,0,0,1.777.5,3.992,3.992,0,0,1-1.209-5.261,11.161,11.161,0,0,0,8.1,4.123,3.929,3.929,0,0,1,6.682-3.59,7.938,7.938,0,0,0,2.524-.96,3.973,3.973,0,0,1-1.742,2.168A7.638,7.638,0,0,0,160.123,189.212Z" transform="translate(-141 -187.377)"/></svg>